<?xml version="1.0" encoding="iso-8859-1"?>
<!-- Generator: Adobe Illustrator 19.0.1, SVG Export Plug-In . SVG Version: 6.00 Build 0)  -->
<svg version="1.1" xmlns="http://www.w3.org/2000/svg" xmlns:xlink="http://www.w3.org/1999/xlink" x="0px" y="0px"
	 viewBox="0 0 138 71" style="enable-background:new 0 0 138 71;" xml:space="preserve">
<g id="&#x421;&#x43B;&#x43E;&#x439;_1">
</g>
<g id="Layer_1" style="fill:#FFFFFF;">
	<g>
		<path d="M64.839,44.997h-8.208v-5.06h2.081v3.09h5.471c0.902,0,1.067-0.683,1.067-1.367v-4.269
			c0-0.847-0.138-1.23-1.067-1.23h-5.06c-1.751,0-2.465-1.012-2.465-2.68v-4.787c0-2.215,1.014-2.845,2.956-2.845h7.851v4.87h-2.108
			v-2.874h-5.06c-0.983,0-1.232,0.603-1.232,1.313v4.021c0,0.574,0.111,1.04,0.902,1.04h5.091c1.697,0,2.515,0.656,2.515,2.325
			v6.018C67.573,44.287,66.26,44.997,64.839,44.997z"/>
		<path d="M79.374,34.192v1.998h-5.855v6.811h6.043v-3.064h2.081v5.06H69.58v-1.996h1.612V27.846H69.58V25.85
			h12.062V30.8h-2.081v-2.954h-6.043v6.346H79.374z"/>
		<path d="M86.357,44.997c-1.996,0-2.599-1.505-2.599-2.872V28.721c0-1.559,0.714-2.872,2.875-2.872h7.847
			V30.8h-2.077v-2.954h-5.279c-0.683,0-1.04,0.328-1.04,1.15v12.855c0,0.739,0.138,1.15,1.04,1.15h5.333v-3.064h2.081v5.06H86.357z"
			/>
		<path d="M100.017,43.001h1.612v1.996h-5.551v-1.996h1.639V27.846h-1.639V25.85h9.767
			c1.996,0,2.541,1.177,2.541,2.38v4.814c0,1.476-0.983,1.751-1.394,1.887v0.083c0.411,0.109,1.612,0.301,1.612,2.023v5.964h1.804
			v1.996h-5.69v-1.996h1.563v-5.609c0-0.737-0.111-1.367-1.067-1.367h-5.198V43.001z M105.05,34.192c0.848,0,1.01-0.574,1.01-1.23
			v-3.83c0-0.712-0.161-1.286-0.902-1.286h-5.141v6.346H105.05z"/>
		<path d="M120.79,34.192v1.998h-5.855v6.811h6.043v-3.064h2.081v5.06h-12.062v-1.996h1.612V27.846h-1.612
			V25.85h12.062V30.8h-2.081v-2.954h-6.043v6.346H120.79z"/>
		<path d="M134.423,31.512v-3.666h-2.902v15.155h2.188v1.996h-6.726v-1.996h2.215V27.846h-2.929v3.666h-2.077
			V25.85H136.5v5.663H134.423z"/>
	</g>
	<g>
		<path d="M45.056,31.894v-5.521c0-1.128-0.141-1.566-0.833-1.497l-4.313,0.426v8.314l4.219-0.087
			C44.842,33.515,45.056,32.722,45.056,31.894z"/>
		<path d="M44.293,36.027l-4.383-0.009v9.139l4.052,0.357c1.144,0.101,1.215-0.458,1.215-1.699V37.76
			C45.177,36.705,44.986,36.029,44.293,36.027z"/>
		<path d="M1.5,17.542v37.186l51.009,14.752V1.366L1.5,17.542z M23.252,26.95l-1.787,0.177L18.32,45.341
			l-2.242-0.252l-2.386-15.222l-0.07,0.005l-2.837,14.621L8.64,44.251L5.993,28.656l-1.646,0.163v-1.74l4.912-0.607v1.861
			l-1.265,0.125l1.837,11.689l0.12,0.007l2.55-14.082l2.526-0.312l2.242,15.007l0.047,0.003l2.312-13.461l-1.359,0.134V25.36
			l4.982-0.615V26.95z M34.998,29.48l-1.81,0.113v-3.626l-5.27,0.521v7.376l5.103-0.105v2.448l-5.103-0.021v7.916l5.27,0.464v-3.76
			l1.81,0.091v6.323l-10.514-1.184V43.8l1.405,0.124V26.689l-1.405,0.139v-2.236l10.514-1.298V29.48z M47.205,43.73
			c0,3.448-0.502,4.808-3.125,4.512l-7.602-0.856v-2.531l1.405,0.124V25.503l-1.405,0.139v-2.531l7.914-0.977
			c1.931-0.239,2.694,0.969,2.694,4.068v5.316c0,1.57-0.689,2.879-1.429,3.039v0.151c0.713,0.145,1.549,1.095,1.549,3.164V43.73z"/>
	</g>
</g>
</svg>
